<svg id="visual" viewBox="0 0 1920 1024" width="1920" height="1024" xmlns="http://www.w3.org/2000/svg" xmlns:xlink="http://www.w3.org/1999/xlink" version="1.1"><path d="M0 216L29.2 238.2C58.3 260.3 116.7 304.7 174.8 299.5C233 294.3 291 239.7 349.2 222.7C407.3 205.7 465.7 226.3 523.8 264C582 301.7 640 356.3 698.2 361.3C756.3 366.3 814.7 321.7 872.8 314.8C931 308 989 339 1047.2 337.3C1105.3 335.7 1163.7 301.3 1221.8 275.7C1280 250 1338 233 1396.2 231.3C1454.3 229.7 1512.7 243.3 1570.8 258.7C1629 274 1687 291 1745.2 287.7C1803.3 284.3 1861.7 260.7 1890.8 248.8L1920 237L1920 0L1890.8 0C1861.7 0 1803.3 0 1745.2 0C1687 0 1629 0 1570.8 0C1512.7 0 1454.3 0 1396.2 0C1338 0 1280 0 1221.8 0C1163.7 0 1105.3 0 1047.2 0C989 0 931 0 872.8 0C814.7 0 756.3 0 698.2 0C640 0 582 0 523.8 0C465.7 0 407.3 0 349.2 0C291 0 233 0 174.8 0C116.7 0 58.3 0 29.2 0L0 0Z" fill="#5a87dc"></path><path d="M0 370L29.2 383.7C58.3 397.3 116.7 424.7 174.8 417.8C233 411 291 370 349.2 361.3C407.3 352.7 465.7 376.3 523.8 415.5C582 454.7 640 509.3 698.2 516.2C756.3 523 814.7 482 872.8 470.2C931 458.3 989 475.7 1047.2 458.7C1105.3 441.7 1163.7 390.3 1221.8 361.2C1280 332 1338 325 1396.2 325C1454.3 325 1512.7 332 1570.8 354.3C1629 376.7 1687 414.3 1745.2 410.8C1803.3 407.3 1861.7 362.7 1890.8 340.3L1920 318L1920 235L1890.8 246.8C1861.7 258.7 1803.3 282.3 1745.2 285.7C1687 289 1629 272 1570.8 256.7C1512.7 241.3 1454.3 227.7 1396.2 229.3C1338 231 1280 248 1221.8 273.7C1163.7 299.3 1105.3 333.7 1047.2 335.3C989 337 931 306 872.8 312.8C814.7 319.7 756.3 364.3 698.2 359.3C640 354.3 582 299.7 523.8 262C465.7 224.3 407.3 203.7 349.2 220.7C291 237.7 233 292.3 174.8 297.5C116.7 302.7 58.3 258.3 29.2 236.2L0 214Z" fill="#3d72d3"></path><path d="M0 523L29.2 528.2C58.3 533.3 116.7 543.7 174.8 525C233 506.3 291 458.7 349.2 451.8C407.3 445 465.7 479 523.8 518.2C582 557.3 640 601.7 698.2 606.8C756.3 612 814.7 578 872.8 566C931 554 989 564 1047.2 557.2C1105.3 550.3 1163.7 526.7 1221.8 513.2C1280 499.7 1338 496.3 1396.2 498C1454.3 499.7 1512.7 506.3 1570.8 525C1629 543.7 1687 574.3 1745.2 576C1803.3 577.7 1861.7 550.3 1890.8 536.7L1920 523L1920 316L1890.8 338.3C1861.7 360.7 1803.3 405.3 1745.2 408.8C1687 412.3 1629 374.7 1570.8 352.3C1512.7 330 1454.3 323 1396.2 323C1338 323 1280 330 1221.8 359.2C1163.7 388.3 1105.3 439.7 1047.2 456.7C989 473.7 931 456.3 872.8 468.2C814.7 480 756.3 521 698.2 514.2C640 507.3 582 452.7 523.8 413.5C465.7 374.3 407.3 350.7 349.2 359.3C291 368 233 409 174.8 415.8C116.7 422.7 58.3 395.3 29.2 381.7L0 368Z" fill="#155dc9"></path><path d="M0 902L29.2 891.8C58.3 881.7 116.7 861.3 174.8 839.2C233 817 291 793 349.2 789.5C407.3 786 465.7 803 523.8 816.7C582 830.3 640 840.7 698.2 840.7C756.3 840.7 814.7 830.3 872.8 813.3C931 796.3 989 772.7 1047.2 772.7C1105.3 772.7 1163.7 796.3 1221.8 801.3C1280 806.3 1338 792.7 1396.2 791C1454.3 789.3 1512.7 799.7 1570.8 811.7C1629 823.7 1687 837.3 1745.2 842.5C1803.3 847.7 1861.7 844.3 1890.8 842.7L1920 841L1920 521L1890.8 534.7C1861.7 548.3 1803.3 575.7 1745.2 574C1687 572.3 1629 541.7 1570.8 523C1512.7 504.3 1454.3 497.7 1396.2 496C1338 494.3 1280 497.7 1221.8 511.2C1163.7 524.7 1105.3 548.3 1047.2 555.2C989 562 931 552 872.8 564C814.7 576 756.3 610 698.2 604.8C640 599.7 582 555.3 523.8 516.2C465.7 477 407.3 443 349.2 449.8C291 456.7 233 504.3 174.8 523C116.7 541.7 58.3 531.3 29.2 526.2L0 521Z" fill="#0951ae"></path><path d="M0 1025L29.2 1025C58.3 1025 116.7 1025 174.8 1025C233 1025 291 1025 349.2 1025C407.3 1025 465.7 1025 523.8 1025C582 1025 640 1025 698.2 1025C756.3 1025 814.7 1025 872.8 1025C931 1025 989 1025 1047.2 1025C1105.3 1025 1163.7 1025 1221.8 1025C1280 1025 1338 1025 1396.2 1025C1454.3 1025 1512.7 1025 1570.8 1025C1629 1025 1687 1025 1745.2 1025C1803.3 1025 1861.7 1025 1890.8 1025L1920 1025L1920 839L1890.8 840.7C1861.7 842.3 1803.3 845.7 1745.2 840.5C1687 835.3 1629 821.7 1570.8 809.7C1512.7 797.7 1454.3 787.3 1396.2 789C1338 790.7 1280 804.3 1221.8 799.3C1163.7 794.3 1105.3 770.7 1047.2 770.7C989 770.7 931 794.3 872.8 811.3C814.7 828.3 756.3 838.7 698.2 838.7C640 838.7 582 828.3 523.8 814.7C465.7 801 407.3 784 349.2 787.5C291 791 233 815 174.8 837.2C116.7 859.3 58.3 879.7 29.2 889.8L0 900Z" fill="#034593"></path></svg>